<?xml version="1.0" encoding="UTF-8"?>
<svg version="1.1" xmlns="http://www.w3.org/2000/svg" width="876" height="238">
<path d="M0 0 C289.08 0 578.16 0 876 0 C876 78.54 876 157.08 876 238 C586.92 238 297.84 238 0 238 C0 159.46 0 80.92 0 0 Z " fill="#F8F6F5" transform="translate(0,0)"/>
<path d="M0 0 C31.44486434 11.54525462 53.26363613 43.76158509 69.625 71.3125 C70.06336182 72.04831299 70.50172363 72.78412598 70.95336914 73.54223633 C74 78.75388577 74 78.75388577 74 81 C70.75069788 82.79293448 67.50043773 84.58412522 64.25 86.375 C63.32960938 86.88289063 62.40921875 87.39078125 61.4609375 87.9140625 C60.57148437 88.40390625 59.68203125 88.89375 58.765625 89.3984375 C57.94868164 89.84880371 57.13173828 90.29916992 56.29003906 90.76318359 C54.21231421 91.88533222 52.11868021 92.95767741 50 94 C49.40574219 92.94683594 48.81148438 91.89367187 48.19921875 90.80859375 C40.66684678 77.63117274 32.44066469 65.35498772 22.0703125 54.22265625 C19.46039741 51.4206908 16.98463275 48.51328691 14.5078125 45.59375 C12.89126371 43.76630898 12.89126371 43.76630898 10 42 C-0.44204934 71.0687644 -0.31486047 104.08415636 12.52734375 132.36328125 C16.75885885 140.67696386 22.11781789 147.81704266 28 155 C28.59683594 155.75152344 29.19367188 156.50304687 29.80859375 157.27734375 C34.52586208 162.99010275 40.12970557 167.51389431 46 172 C46.7425 172.56976563 47.485 173.13953125 48.25 173.7265625 C53.46149539 177.46274486 58.91799001 179.73975654 64.94140625 181.8984375 C68 183 68 183 70.15234375 183.9765625 C76.24478898 186.73297535 82.42207298 186.27073785 89 186 C88.40574219 185.81566406 87.81148438 185.63132813 87.19921875 185.44140625 C75.68904293 181.41373975 66.92477094 173.61521461 61 163 C54.86325786 150.21512054 51.8368405 134.78541358 56.625 120.9375 C57.36218267 119.26655261 58.15403563 117.61859437 59 116 C59.44730469 115.14148438 59.89460938 114.28296875 60.35546875 113.3984375 C67.37244798 100.94471028 77.13460245 91.84955403 90.90234375 87.3828125 C101.90582981 84.39117569 113.82205851 84.70871543 124 90 C127.51976501 92.12236577 130.76317307 94.4710601 134 97 C134.69996094 97.50015625 135.39992187 98.0003125 136.12109375 98.515625 C145.18040904 105.50878067 151.47634707 117.74608827 153 129 C154.03091475 144.85242679 151.39347812 158.37044558 141.59765625 171.12890625 C136.9975664 176.33856116 132.05997963 181.47986477 126 185 C125.34 185 124.68 185 124 185 C124 185.66 124 186.32 124 187 C140.60148764 181.82659053 155.73406819 176.68193995 169 165 C169.80824219 164.34644531 170.61648437 163.69289062 171.44921875 163.01953125 C189.63183692 147.8055038 201.01419826 124.62072964 203.68359375 101.26953125 C205.3206095 81.70462792 203.31269406 62.87701932 198 44 C180.27194652 55.88310942 166.26279484 77.05337418 157 96 C152.35019139 94.32570492 148.20810507 91.95041134 143.9375 89.5 C142.5304351 88.69706233 141.12289746 87.8949524 139.71484375 87.09375 C139.09730225 86.73990234 138.47976074 86.38605469 137.84350586 86.02148438 C135.92171634 84.95662312 133.97148564 83.96927066 132 83 C132.4802339 77.65339594 135.36081958 73.71551248 138.1875 69.3125 C138.72068848 68.4781543 139.25387695 67.64380859 139.80322266 66.78417969 C156.10819529 41.69597202 178.61050618 14.47024286 206 1 C211.38971346 2.79657115 213.4029011 8.94602782 215.91064453 13.79589844 C223.04113977 28.22308603 227.39101492 43.36953644 231 59 C231.4021875 60.6396875 231.4021875 60.6396875 231.8125 62.3125 C238.2161258 92.90760104 231.14306026 131.05799749 214.125 157.3125 C207.6251376 166.55702598 200.26367998 175.04762439 192.54296875 183.28125 C191.08332131 184.84179473 189.63832095 186.41701354 188.23828125 188.03125 C183.78053395 192.97182635 178.26776878 195.94282147 172.48828125 199.08203125 C169.53250187 200.70721342 166.71200791 202.43046504 163.875 204.25 C158.5470414 207.47827048 152.93150839 209.20109991 147 211 C145.56149878 211.51806163 144.12391911 212.03869303 142.6875 212.5625 C111.68613751 222.91514477 76.16625503 220.39281174 46.890625 206.52734375 C35.47006304 200.60251464 25.25338944 192.89528613 16 184 C15.04351562 183.10667969 14.08703125 182.21335938 13.1015625 181.29296875 C-9.66968026 159.65531946 -23.45684046 129.73888069 -25.20825195 98.2565918 C-25.30326754 94.29476758 -25.33451286 90.33755087 -25.3125 86.375 C-25.31034485 85.67379028 -25.3081897 84.97258057 -25.30596924 84.25012207 C-25.15669667 53.88997988 -16.85763219 25.37611654 0 0 Z " fill="#086BC0" transform="translate(46,18)"/>
<path d="M0 0 C10.37910556 7.91887313 17.32984184 17.31199091 20.26171875 30.19921875 C20.56188543 33.80766646 20.58655479 37.3923239 20.57421875 41.01171875 C20.59033203 41.94564453 20.60644531 42.87957031 20.62304688 43.84179688 C20.63162303 56.20003538 16.04813158 65.67771287 9.51171875 75.94921875 C-0.62514732 86.08608482 -11.89979606 90.61645763 -26.05078125 90.69921875 C-26.99405273 90.7055835 -27.93732422 90.71194824 -28.90917969 90.71850586 C-34.62786209 90.61359915 -38.65032219 89.81090876 -43.73828125 87.19921875 C-44.46015625 86.88339844 -45.18203125 86.56757813 -45.92578125 86.2421875 C-57.26087278 80.89221973 -64.10347576 71.67900713 -69.01171875 60.3046875 C-73.25283247 48.01457838 -71.94961801 31.88035749 -66.73828125 20.19921875 C-60.85212643 8.18942736 -51.8946975 0.01951157 -39.30078125 -4.67578125 C-26.60940899 -8.02405797 -11.07330633 -7.28216008 0 0 Z " fill="#056AC2" transform="translate(371.73828125,93.80078125)"/>
<path d="M0 0 C0.74886475 0.00523682 1.49772949 0.01047363 2.26928711 0.01586914 C3.36188843 0.01961548 3.36188843 0.01961548 4.4765625 0.0234375 C5.40718506 0.0325415 6.33780762 0.04164551 7.29663086 0.05102539 C8.89094811 0.0625141 10.485268 0.0736403 12.07958984 0.08447266 C13.46443685 0.0941569 14.84928385 0.10384115 16.23413086 0.11352539 C23.30574193 18.06620366 30.3387207 36.03318671 37.29858398 54.02954102 C38.26833566 56.53506268 39.2393439 59.04004978 40.21264648 61.54418945 C41.65117567 65.24533485 43.08350158 68.94886443 44.51538086 72.65258789 C44.94661255 73.75994293 45.37784424 74.86729797 45.82214355 76.00820923 C48.25254795 82.3138471 50.37881587 88.61466067 52.23413086 95.11352539 C46.62413086 95.11352539 41.01413086 95.11352539 35.23413086 95.11352539 C33.89662438 91.82349829 32.56396156 88.53165344 31.23413086 85.23852539 C30.85256836 84.30137695 30.47100586 83.36422852 30.07788086 82.39868164 C29.71694336 81.5027832 29.35600586 80.60688477 28.98413086 79.68383789 C28.48139648 78.4427124 28.48139648 78.4427124 27.96850586 77.17651367 C27.23413086 75.11352539 27.23413086 75.11352539 27.23413086 73.11352539 C14.03413086 73.11352539 0.83413086 73.11352539 -12.76586914 73.11352539 C-13.75586914 76.74352539 -14.74586914 80.37352539 -15.76586914 84.11352539 C-17.01016626 87.82144759 -18.38685101 91.4519945 -19.76586914 95.11352539 C-25.04586914 95.11352539 -30.32586914 95.11352539 -35.76586914 95.11352539 C-33.76946639 88.29890338 -31.59494976 81.59055318 -29.21118164 74.90258789 C-28.87291351 73.94762924 -28.53464539 72.99267059 -28.18612671 72.0087738 C-27.09030498 68.9177619 -25.99080436 65.82807567 -24.89086914 62.73852539 C-24.13103855 60.59979522 -23.37127352 58.46104175 -22.61157227 56.32226562 C-20.334889 49.91748752 -18.05165163 43.51506108 -15.76586914 37.11352539 C-15.42100464 36.14743347 -15.07614014 35.18134155 -14.7208252 34.18597412 C-12.85614339 28.96443547 -10.98717934 23.7444658 -9.11102295 18.52703857 C-8.54886542 16.96325249 -7.98754145 15.3991665 -7.42706299 13.83477783 C-6.65747567 11.68835657 -5.88418166 9.54331167 -5.10961914 7.39868164 C-4.46283203 5.6024939 -4.46283203 5.6024939 -3.80297852 3.77001953 C-2.39115774 0.15372437 -2.39115774 0.15372437 0 0 Z " fill="#056BC2" transform="translate(780.765869140625,87.886474609375)"/>
<path d="M0 0 C0.76892578 -0.01611328 1.53785156 -0.03222656 2.33007812 -0.04882812 C7.92008754 -0.05354543 12.05738826 1.09549618 17.1875 3.3125 C17.1875 3.9725 17.1875 4.6325 17.1875 5.3125 C18.2084375 5.5909375 18.2084375 5.5909375 19.25 5.875 C27.05767362 9.69577645 30.90251848 16.54799823 34.1875 24.3125 C36.9146875 32.49406251 35.80573946 41.92948388 32.51171875 49.77734375 C28.531465 57.39735757 23.70685961 62.27268719 16.1875 66.3125 C15.08148438 67.10914062 15.08148438 67.10914062 13.953125 67.921875 C10.31903097 69.74918782 7.03856592 69.76431087 3.0625 69.6875 C1.9324353 69.67227295 1.9324353 69.67227295 0.77954102 69.65673828 C-9.07725063 69.38484132 -17.67303291 67.51459399 -24.8125 60.3125 C-32.77498521 50.54035906 -35.10711443 40.80578938 -34.12744141 28.3984375 C-32.91906402 20.39504497 -27.62509723 12.4059732 -21.41015625 7.36328125 C-20.57355469 6.78964844 -19.73695313 6.21601563 -18.875 5.625 C-18.04097656 5.04363281 -17.20695312 4.46226563 -16.34765625 3.86328125 C-10.7923317 0.46503187 -6.38406513 -0.02635865 0 0 Z " fill="#096BC0" transform="translate(149.8125,16.6875)"/>
<path d="M0 0 C0.79575439 0.00757324 1.59150879 0.01514648 2.41137695 0.02294922 C8.36851373 0.19027423 13.13705869 0.98348473 18.125 4.4375 C18.75535156 4.87320313 19.38570312 5.30890625 20.03515625 5.7578125 C28.12874187 12.04709559 31.71690348 20.42055321 33.125 30.4375 C33.125 34.0675 33.125 37.6975 33.125 41.4375 C16.955 41.4375 0.785 41.4375 -15.875 41.4375 C-11.87638793 50.75233984 -11.87638793 50.75233984 -7.875 54.4375 C-2.66711776 56.17346075 4.05002924 56.70434189 9.2109375 54.578125 C11.01611197 53.36293438 12.58624289 51.97625711 14.125 50.4375 C16.82154854 50.36430379 19.49191458 50.34507463 22.1875 50.375 C23.32541992 50.38176758 23.32541992 50.38176758 24.48632812 50.38867188 C26.36591871 50.4004932 28.24546899 50.41842922 30.125 50.4375 C29.04656861 57.5898553 24.74312521 62.39177877 19.1875 66.8125 C10.92559243 72.5167814 1.2755272 72.44338456 -8.4296875 71.078125 C-16.25674051 69.01690819 -22.29491707 63.16660772 -26.8046875 56.6484375 C-29.69412219 51.62994567 -31.67641985 47.29561438 -31.875 41.4375 C-31.92398438 40.385625 -31.97296875 39.33375 -32.0234375 38.25 C-32.34557882 26.75203281 -30.79034344 18.05725339 -22.875 9.4375 C-16.09020513 2.55912176 -9.58664434 -0.12735026 0 0 Z " fill="#046AC2" transform="translate(579.875,112.5625)"/>
<path d="M0 0 C1.765625 1.11328125 1.765625 1.11328125 3.5 2.4375 C4.19609375 2.94667969 4.8921875 3.45585938 5.609375 3.98046875 C10.46416028 7.85189424 13.24257475 11.6870062 15.5 17.4375 C16.11875 18.8296875 16.11875 18.8296875 16.75 20.25 C19.28042746 31.00431672 16.98794144 41.06980509 11.5 50.4375 C8.93175435 54.16559852 6.560968 56.407016 2.5 58.4375 C1.84 58.4375 1.18 58.4375 0.5 58.4375 C0.17 59.4275 -0.16 60.4175 -0.5 61.4375 C-4.58430925 62.79893642 -8.40794679 62.74068446 -12.6875 62.8125 C-13.9259668 62.86857422 -13.9259668 62.86857422 -15.18945312 62.92578125 C-22.73095699 63.03275294 -26.89499208 60.26444865 -32.671875 55.734375 C-39.97823628 48.57269414 -42.6160292 40.3842136 -42.8125 30.3125 C-42.82322182 20.4567611 -40.19808766 13.39300712 -33.4375 6.1953125 C-24.81603648 -1.62657981 -11.03068987 -5.17270828 0 0 Z " fill="#F5F5F4" transform="translate(359.5,105.5625)"/>
<path d="M0 0 C4.29 0 8.58 0 13 0 C14.1577506 3.47325181 14.06866652 6.36067448 14 10 C14.66 10 15.32 10 16 10 C16.309375 8.88625 16.309375 8.88625 16.625 7.75 C18.44896484 4.10207031 20.43488877 2.91967528 24 1 C32.07111821 -0.67259612 40.8528805 -1.96771789 48.0625 2.6875 C54.91309082 8.04774291 58.58290023 14.37739785 60 23 C60.08195178 24.6257357 60.11791298 26.25428605 60.11352539 27.88208008 C60.11344986 28.82267776 60.11337433 29.76327545 60.11329651 30.7323761 C60.10813522 31.7346373 60.10297394 32.7368985 60.09765625 33.76953125 C60.0962413 34.80567062 60.09482635 35.84181 60.09336853 36.90934753 C60.08778242 40.21042804 60.07523242 43.51144008 60.0625 46.8125 C60.05748321 49.05403548 60.05292061 51.29557202 60.04882812 53.53710938 C60.03781753 59.02476586 60.02056239 64.51237133 60 70 C55.05 70 50.1 70 45 70 C44.98541748 68.73929687 44.97083496 67.47859375 44.95581055 66.1796875 C44.89757513 61.47546885 44.82034437 56.77171627 44.73754883 52.06787109 C44.70441787 50.03702391 44.67634957 48.00608726 44.65356445 45.97509766 C44.61980023 43.04551282 44.56747401 40.1167391 44.51171875 37.1875 C44.50532883 36.28821777 44.4989389 35.38893555 44.49235535 34.46240234 C44.34644005 28.12067351 43.67572692 21.89391925 39.1796875 17.03125 C34.68650392 14.90544271 29.82594457 15.30965766 25 16 C21.62844194 17.56352788 19.67872274 19.76433492 17.87744141 23.04370117 C16.58888888 27.38512647 16.64152499 31.60592067 16.5859375 36.11328125 C16.56657135 37.08283249 16.5472052 38.05238373 16.5272522 39.05131531 C16.46762564 42.13828828 16.4211386 45.22529888 16.375 48.3125 C16.33680466 50.40952118 16.29775202 52.50652694 16.2578125 54.60351562 C16.16193791 59.73555131 16.07784423 64.86766043 16 70 C10.72 70 5.44 70 0 70 C0 46.9 0 23.8 0 0 Z " fill="#046AC2" transform="translate(405,113)"/>
<path d="M0 0 C1.010625 0.680625 2.02125 1.36125 3.0625 2.0625 C8.57598744 6.85052857 11.10371826 13.94141239 12 21 C12.13138495 24.55015869 12.11645573 28.09627207 12.09765625 31.6484375 C12.0962413 32.66096588 12.09482635 33.67349426 12.09336853 34.71670532 C12.08779143 37.93616751 12.07524312 41.15555899 12.0625 44.375 C12.05748204 46.56380108 12.05291965 48.75260325 12.04882812 50.94140625 C12.03782949 56.29429789 12.02058063 61.64713697 12 67 C6.72 67 1.44 67 -4 67 C-4.01458252 65.60241455 -4.02916504 64.2048291 -4.04418945 62.76489258 C-4.10220831 57.57436678 -4.17944163 52.38427315 -4.26245117 47.1940918 C-4.29568351 44.9487205 -4.32372069 42.703266 -4.34643555 40.45776367 C-4.38001202 37.22799257 -4.43233073 33.99898273 -4.48828125 30.76953125 C-4.49467117 29.76727005 -4.5010611 28.76500885 -4.50764465 27.7323761 C-4.61925075 20.85918775 -4.61925075 20.85918775 -8 15 C-11.58472042 12.61018639 -13.25353765 12.75989743 -17.5 12.8125 C-19.21703125 12.82216797 -19.21703125 12.82216797 -20.96875 12.83203125 C-24.04622101 12.86915416 -24.04622101 12.86915416 -27 14 C-28.10168984 15.69769234 -28.10168984 15.69769234 -29 18 C-29.5050708 19.00039307 -30.0101416 20.00078613 -30.53051758 21.03149414 C-32.47502047 25.58934982 -32.47626056 29.97364439 -32.51171875 34.87109375 C-32.52966995 35.793423 -32.54762115 36.71575226 -32.56611633 37.66603088 C-32.61996736 40.58980848 -32.65403385 43.5134252 -32.6875 46.4375 C-32.72069534 48.42905872 -32.75518704 50.42059629 -32.79101562 52.41210938 C-32.87567926 57.27462303 -32.94261026 62.13709107 -33 67 C-37.95 67 -42.9 67 -48 67 C-48 44.23 -48 21.46 -48 -2 C-43.71 -2 -39.42 -2 -35 -2 C-34.67 0.97 -34.34 3.94 -34 7 C-33.34 7 -32.68 7 -32 7 C-31.773125 6.2575 -31.54625 5.515 -31.3125 4.75 C-29.68685866 1.34389434 -28.20040104 -0.00863935 -25 -2 C-17.12830628 -3.92776173 -6.89135485 -4.75831644 0 0 Z " fill="#066CC3" transform="translate(527,116)"/>
<path d="M0 0 C0.84240234 -0.01224609 1.68480469 -0.02449219 2.55273438 -0.03710938 C7.3396811 -0.04833755 11.19028001 0.331388 15.6875 2.1875 C15.6875 2.8475 15.6875 3.5075 15.6875 4.1875 C16.409375 4.39375 17.13125 4.6 17.875 4.8125 C21.44448858 6.55758331 23.76529387 8.74697541 25.6875 12.1875 C26.36110523 14.92125554 26.54092044 17.35362854 26.6875 20.1875 C15.32986765 21.10977391 15.32986765 21.10977391 11.37109375 18.88671875 C9.5625 17.25 9.5625 17.25 8.0546875 15.59765625 C5.76013169 13.23098583 3.51411 13.1746563 0.3125 12.9375 C-3.79322096 13.22065317 -6.38590672 14.26090672 -9.3125 17.1875 C-9.02519945 19.52694736 -8.69313221 21.8614143 -8.3125 24.1875 C-7.20132813 24.35765625 -6.09015625 24.5278125 -4.9453125 24.703125 C7.01407514 26.61361329 18.41903898 28.43963297 26.6875 38.1875 C29.44485782 43.64797254 29.44791146 49.20507921 28.6875 55.1875 C26.11848092 61.75866864 21.42475091 65.36266606 15.6875 69.1875 C6.06442545 71.38544968 -7.39340046 72.06482894 -16.3125 67.1875 C-20.32456236 64.5987857 -23.36806994 61.58805225 -25.3125 57.1875 C-25.82233042 54.50839113 -26.08153405 51.91289821 -26.3125 49.1875 C-23.87315775 49.05248106 -21.44125896 48.95346103 -19 48.875 C-18.30970703 48.83310547 -17.61941406 48.79121094 -16.90820312 48.74804688 C-14.88671875 48.69921875 -14.88671875 48.69921875 -11.3125 49.1875 C-9.4609375 51.625 -9.4609375 51.625 -8.3125 54.1875 C-3.88248167 57.00660257 1.61626062 56.83454809 6.6875 56.1875 C10.35514527 54.80168436 10.35514527 54.80168436 12.6875 52.1875 C13.18919415 49.01823436 13.18919415 49.01823436 12.6875 46.1875 C8.10776111 43.73787222 4.58097855 43.01557009 -0.625 42.8125 C-8.86444876 42.3200272 -15.25042342 39.85720629 -20.8125 33.625 C-24.38690812 29.12581768 -25.84448552 25.4361887 -25.68359375 19.69140625 C-24.69379681 13.01288164 -21.50211942 7.72372863 -16.1875 3.625 C-10.84555939 -0.04368684 -6.26947812 0.00473168 0 0 Z " fill="#066BC2" transform="translate(647.3125,112.8125)"/>
<path d="M0 0 C6.37028745 3.34537795 11.71559763 7.7306359 14.18359375 14.671875 C14.18359375 15.991875 14.18359375 17.311875 14.18359375 18.671875 C1.58705841 19.43891707 1.58705841 19.43891707 -1.7890625 17.59375 C-3.06640625 16.234375 -3.06640625 16.234375 -4.81640625 13.671875 C-7.66478746 12.2476844 -10.14428533 12.50191992 -13.31640625 12.484375 C-15.064375 12.46310547 -15.064375 12.46310547 -16.84765625 12.44140625 C-19.93547343 12.35743786 -19.93547343 12.35743786 -21.81640625 14.671875 C-22.01787027 18.365382 -21.98993814 21.15127932 -20.81640625 24.671875 C-19.95660156 24.69765625 -19.09679687 24.7234375 -18.2109375 24.75 C-8.19417964 25.2306296 2.79052256 25.87322588 10.37109375 33.171875 C15.05943113 38.39432677 15.63070406 42.72171484 15.49609375 49.62890625 C14.88293465 55.599543 12.58391867 59.20641869 8.49609375 63.484375 C1.59491882 68.04175467 -5.28794718 69.16523166 -13.44140625 69.046875 C-14.24835937 69.05847656 -15.0553125 69.07007813 -15.88671875 69.08203125 C-22.85377063 69.0481008 -28.4825451 67.58034058 -33.56640625 62.484375 C-37.58240524 58.23373337 -39.81640625 53.62923798 -39.81640625 47.671875 C-37.377064 47.53685606 -34.94516521 47.43783603 -32.50390625 47.359375 C-31.81361328 47.31748047 -31.12332031 47.27558594 -30.41210938 47.23242188 C-28.390625 47.18359375 -28.390625 47.18359375 -24.81640625 47.671875 C-23.02734375 50.10546875 -23.02734375 50.10546875 -21.81640625 52.671875 C-15.35407257 55.57333094 -8.41659446 54.87193774 -1.81640625 52.671875 C-0.38580497 49.81067244 -0.42948044 47.83176915 -0.81640625 44.671875 C-4.69504818 41.6201888 -8.2359904 41.14895311 -13.06640625 40.671875 C-22.8799615 39.51187466 -29.06169342 38.48319068 -35.50390625 30.609375 C-39.05903202 25.3613322 -38.41936743 18.73019919 -37.81640625 12.671875 C-35.93239866 6.71225915 -31.47340731 2.71183637 -26.1015625 -0.26171875 C-18.28866742 -2.7978904 -7.70871048 -3.11047807 0 0 Z " fill="#056AC2" transform="translate(724.81640625,114.328125)"/>
<path d="M0 0 C5.28 0 10.56 0 16 0 C16 31.35 16 62.7 16 95 C10.72 95 5.44 95 0 95 C0 63.65 0 32.3 0 0 Z " fill="#006CC3" transform="translate(843,88)"/>
<path d="M0 0 C2.7273776 2.7273776 3.5721511 5.92416766 4.8203125 9.4921875 C5.08383514 10.23453644 5.34735779 10.97688538 5.61886597 11.74172974 C6.17470598 13.31265369 6.72762069 14.88461531 7.27783203 16.45751953 C8.1203222 18.86165143 8.97550449 21.26099474 9.83203125 23.66015625 C10.37056515 25.18722744 10.90835047 26.71456288 11.4453125 28.2421875 C11.70152374 28.95897675 11.95773499 29.67576599 12.22171021 30.41427612 C13.41012951 33.84008739 14 36.32662047 14 40 C5.09 40 -3.82 40 -13 40 C-11.7269862 34.27143788 -10.48900638 29.09012209 -8.65234375 23.59375 C-8.43558487 22.94297485 -8.21882599 22.29219971 -7.99549866 21.6217041 C-7.54302876 20.26660892 -7.08838201 18.9122387 -6.6315918 17.55859375 C-5.93023641 15.47845706 -5.23712665 13.39569745 -4.54492188 11.3125 C-1.13973077 1.13973077 -1.13973077 1.13973077 0 0 Z " fill="#F3F5F4" transform="translate(787,106)"/>
<path d="M0 0 C5.28 0 10.56 0 16 0 C16 31.35 16 62.7 16 95 C10.72 95 5.44 95 0 95 C0 63.65 0 32.3 0 0 Z M2 3 C2 32.7 2 62.4 2 93 C5.96 93 9.92 93 14 93 C14 62.97 14 32.94 14 2 C9.98613514 2 5.99738075 2.63660175 2 3 Z " fill="#0B63BF" transform="translate(843,88)"/>
<path d="M0 0 C4.47534554 2.63043659 8.14181707 6.08182428 10 11 C10 12.65 10 14.3 10 16 C-0.56 16 -11.12 16 -22 16 C-20.86573577 9.19441461 -20.86573577 9.19441461 -18.1875 5.75 C-17.68605469 5.08484375 -17.18460938 4.4196875 -16.66796875 3.734375 C-12.13818009 -0.97575654 -6.16196846 -1.13040249 0 0 Z " fill="#E9EFF2" transform="translate(586,126)"/>
<path d="M0 0 C4.29 0 8.58 0 13 0 C13 2.31 13 4.62 13 7 C12.67 5.68 12.34 4.36 12 3 C8.7 3 5.4 3 2 3 C2 24.45 2 45.9 2 68 C5.96 68 9.92 68 14 68 C13.98428955 66.83017578 13.9685791 65.66035156 13.95239258 64.45507812 C13.89781289 60.08665945 13.86354847 55.71827053 13.83520508 51.34960938 C13.82018207 49.46414103 13.79975769 47.57870725 13.77368164 45.69335938 C13.73701137 42.9725691 13.72020854 40.25224359 13.70703125 37.53125 C13.69154739 36.69758911 13.67606354 35.86392822 13.66011047 35.00500488 C13.65850768 29.34464213 14.73858834 25.19576934 17 20 C18 23 18 23 17 26 C16.88650152 27.45706917 16.82398525 28.91844959 16.79467773 30.37963867 C16.77473251 31.26032516 16.75478729 32.14101166 16.73423767 33.04838562 C16.70916893 34.46882927 16.70916893 34.46882927 16.68359375 35.91796875 C16.66281265 36.89034988 16.64203156 37.86273102 16.62062073 38.86457825 C16.55521252 41.97214665 16.49628071 45.07979985 16.4375 48.1875 C16.39430649 50.29362858 16.35069193 52.39974856 16.30664062 54.50585938 C16.19954001 59.67048591 16.09824781 64.83519778 16 70 C10.72 70 5.44 70 0 70 C0 46.9 0 23.8 0 0 Z " fill="#1E6FC2" transform="translate(405,113)"/>
<path d="M0 0 C4.29 0 8.58 0 13 0 C13.33 2.97 13.66 5.94 14 9 C13.34 9 12.68 9 12 9 C11.67 6.69 11.34 4.38 11 2 C8.03 2 5.06 2 2 2 C2 23.45 2 44.9 2 67 C5.63 67 9.26 67 13 67 C12.98952637 65.91581787 12.97905273 64.83163574 12.96826172 63.71459961 C12.93189357 59.66857238 12.90903863 55.62255943 12.89013672 51.57641602 C12.88011732 49.82964645 12.86649805 48.0828935 12.84912109 46.33618164 C12.82469331 43.81652715 12.81347611 41.29709561 12.8046875 38.77734375 C12.79436493 38.00414291 12.78404236 37.23094208 12.77340698 36.43431091 C12.77241609 31.57870404 13.45727106 27.60950327 15 23 C15.82548591 25.86503908 16.10240727 28.33342064 16.02172852 31.30957031 C15.99158409 32.5704245 15.99158409 32.5704245 15.96083069 33.85675049 C15.92027809 35.20383087 15.92027809 35.20383087 15.87890625 36.578125 C15.85529526 37.5046991 15.83168427 38.43127319 15.80735779 39.38592529 C15.73088117 42.34077893 15.64678793 45.29535987 15.5625 48.25 C15.5092633 50.25519506 15.45652301 52.26040337 15.40429688 54.265625 C15.27528764 59.1772555 15.13944779 64.08865522 15 69 C10.05 69 5.1 69 0 69 C0 46.23 0 23.46 0 0 Z " fill="#035ABD" transform="translate(479,114)"/>
<path d="M0 0 C2.74946813 0.35652444 3.85316403 0.84937472 5.81640625 2.86328125 C13.17099013 13.17944254 14 21.30573566 14 34 C-2.17 34 -18.34 34 -35 34 C-35 33.67 -35 33.34 -35 33 C-19.49 33 -3.98 33 12 33 C10.20486706 16.16256146 10.20486706 16.16256146 2 3 C2 2.34 2 1.68 2 1 C1.34 0.67 0.68 0.34 0 0 Z " fill="#2770C3" transform="translate(599,120)"/>
<path d="M0 0 C2.18321536 2.05760247 3.82962587 4.10595182 5.41015625 6.65234375 C6.05887695 7.69358398 6.05887695 7.69358398 6.72070312 8.75585938 C7.16349609 9.47580078 7.60628906 10.19574219 8.0625 10.9375 C8.50916016 11.65357422 8.95582031 12.36964844 9.41601562 13.10742188 C12.78120919 18.53499117 12.78120919 18.53499117 14.02246094 21.1730957 C15.28837029 23.53892979 16.61042073 23.87021768 19 25 C20.67578125 26.734375 20.67578125 26.734375 22.3125 28.75 C25.58296551 32.62925346 29.07255716 35.79392422 33 39 C32.34 39.66 31.68 40.32 31 41 C6.34762113 17.47667143 6.34762113 17.47667143 0 3 C0 2.01 0 1.02 0 0 Z " fill="#115EB9" transform="translate(36,166)"/>
<path d="M0 0 C0.87458862 0.1071936 0.87458862 0.1071936 1.7668457 0.21655273 C10.90826727 1.20074904 20.00753193 1.1119098 29.1875 1.0625 C30.82356633 1.05747294 32.45963417 1.05291217 34.09570312 1.04882812 C38.06383986 1.03792277 42.03190291 1.0207253 46 1 C46 1.33 46 1.66 46 2 C36.37680616 3.77854408 26.96611618 4.19287065 17.1875 4.1875 C15.44267334 4.1884668 15.44267334 4.1884668 13.66259766 4.18945312 C5.2698614 4.1349307 5.2698614 4.1349307 3 3 C3 2.34 3 1.68 3 1 C2.01 0.67 1.02 0.34 0 0 Z " fill="#B3CDE4" transform="translate(123,234)"/>
<path d="M0 0 C0.33 0 0.66 0 1 0 C0.67 13.86 0.34 27.72 0 42 C-2.87074992 39.12925008 -2.25854685 37.09975696 -2.265625 33.0859375 C-2.26753845 32.39746735 -2.2694519 31.70899719 -2.27142334 30.99966431 C-2.2727858 29.53867224 -2.26908508 28.0776681 -2.26074219 26.61669922 C-2.25014058 24.40433664 -2.26058371 22.19280434 -2.2734375 19.98046875 C-2.27930369 13.07890153 -2.18946519 6.62052571 0 0 Z " fill="#1767BC" transform="translate(23,80)"/>
<path d="M0 0 C6.97666775 5.30833416 11.86850562 11.99466894 17 19 C17.70125 19.94230469 18.4025 20.88460937 19.125 21.85546875 C22.20475133 26.09654298 24.77161163 29.81347135 26 35 C22.22925466 31.57125249 19.65430407 27.65950382 16.875 23.4375 C12.66625136 17.14514153 8.21820553 11.63805104 2.8984375 6.234375 C1.03830372 4.04508174 0.37330214 2.80620231 0 0 Z " fill="#125FB9" transform="translate(65,66)"/>
<path d="M0 0 C0.33 0.99 0.66 1.98 1 3 C-3.98332292 8.08714214 -9.01180669 13.00990918 -14.46875 17.58984375 C-16.11898278 18.94214631 -16.11898278 18.94214631 -17 21 C-17.99 20.67 -18.98 20.34 -20 20 C-17.79776179 17.59850306 -15.58712559 15.20488935 -13.375 12.8125 C-12.75753906 12.13896484 -12.14007813 11.46542969 -11.50390625 10.77148438 C-7.8733195 6.85427236 -4.18715347 3.3175139 0 0 Z " fill="#1E6BBF" transform="translate(225,39)"/>
<path d="M0 0 C0.66 0.33 1.32 0.66 2 1 C1.1875 2.9375 1.1875 2.9375 0 5 C-0.99 5.33 -1.98 5.66 -3 6 C-3.99 11.28 -4.98 16.56 -6 22 C-6.66 22 -7.32 22 -8 22 C-8.61088045 14.42508237 -7.10703633 9.40929049 -3 3 C-1.33203125 1.2109375 -1.33203125 1.2109375 0 0 Z " fill="#206CC2" transform="translate(630,117)"/>
<path d="M0 0 C5.94 0 11.88 0 18 0 C18 0.99 18 1.98 18 3 C12.06 3 6.12 3 0 3 C0 2.01 0 1.02 0 0 Z " fill="#2776C5" transform="translate(779,88)"/>
<path d="M0 0 C5.56225539 1.34842555 8.73442841 5.56689879 12 10 C13.1577506 13.47325181 13.06866652 16.36067448 13 20 C12.34 20 11.68 20 11 20 C10.90203125 19.40832031 10.8040625 18.81664062 10.703125 18.20703125 C9.73033568 13.06634287 8.5992157 9.95913727 5 6 C5 5.34 5 4.68 5 4 C4.360625 3.896875 3.72125 3.79375 3.0625 3.6875 C2.381875 3.460625 1.70125 3.23375 1 3 C0.67 2.01 0.34 1.02 0 0 Z " fill="#1A68C0" transform="translate(663,143)"/>
<path d="M0 0 C2.90140893 0.33871073 3.87204165 0.85665425 5.8515625 3.07421875 C10.03891312 9.24456581 13.4537659 14.28597969 13 22 C12.34 22 11.68 22 11 22 C10.76925781 21.13117188 10.53851562 20.26234375 10.30078125 19.3671875 C8.41839165 12.71558154 6.82809051 7.96220413 2 3 C2 2.34 2 1.68 2 1 C1.34 0.67 0.68 0.34 0 0 Z " fill="#1D69C0" transform="translate(599,120)"/>
<path d="M0 0 C0.82048828 -0.01160156 1.64097656 -0.02320312 2.48632812 -0.03515625 C7.92076341 -0.00913342 11.71614629 0.9094257 16.5625 3.375 C15.9025 4.035 15.2425 4.695 14.5625 5.375 C12.5825 4.715 10.6025 4.055 8.5625 3.375 C8.5625 2.715 8.5625 2.055 8.5625 1.375 C6.01929484 1.46259258 3.47933067 1.56953413 0.9375 1.6875 C0.22464844 1.71005859 -0.48820313 1.73261719 -1.22265625 1.75585938 C-5.96336948 1.99506968 -9.26065355 2.91764397 -13.4375 5.375 C-14.0975 4.715 -14.7575 4.055 -15.4375 3.375 C-10.18081753 0.15453651 -5.9726135 -0.08405555 0 0 Z " fill="#3478C6" transform="translate(711.4375,112.625)"/>
<path d="M0 0 C2.43934225 -0.13501894 4.87124104 -0.23403897 7.3125 -0.3125 C8.34793945 -0.3753418 8.34793945 -0.3753418 9.40429688 -0.43945312 C11.42578125 -0.48828125 11.42578125 -0.48828125 15 0 C16.85546875 2.33203125 16.85546875 2.33203125 18 5 C18.99 6.485 18.99 6.485 20 8 C18.1875 7.75 18.1875 7.75 16 7 C15.5978125 6.34 15.195625 5.68 14.78125 5 C13.08397809 2.68742779 13.08397809 2.68742779 9.86328125 2.390625 C8.69152344 2.34421875 7.51976562 2.2978125 6.3125 2.25 C5.13300781 2.19328125 3.95351563 2.1365625 2.73828125 2.078125 C1.38283203 2.03945312 1.38283203 2.03945312 0 2 C0 1.34 0 0.68 0 0 Z " fill="#266CC1" transform="translate(621,162)"/>
<path d="M0 0 C3.42018347 2.72996572 4.68986833 6.48794336 6.25 10.4375 C6.53101563 11.10587891 6.81203125 11.77425781 7.1015625 12.46289062 C8.23224259 15.28679214 9.07741497 17.41662287 8.671875 20.47265625 C8.45015625 20.97667969 8.2284375 21.48070313 8 22 C6.26947538 18.80518532 5.04129977 15.49687081 3.796875 12.09375 C3.03400497 10.0893464 2.19101719 8.14344393 1.3125 6.1875 C0 3 0 3 0 0 Z " fill="#1A67BD" transform="translate(262,36)"/>
<path d="M0 0 C3.30118794 0.5805321 4.91134076 1.54868099 7.234375 3.94140625 C8.09482422 4.81635742 8.09482422 4.81635742 8.97265625 5.70898438 C9.55917969 6.32064453 10.14570312 6.93230469 10.75 7.5625 C11.35199219 8.17802734 11.95398438 8.79355469 12.57421875 9.42773438 C14.05634381 10.94514813 15.5290967 12.47170596 17 14 C16.34 14.66 15.68 15.32 15 16 C14.7525 15.38125 14.505 14.7625 14.25 14.125 C13.20218211 11.90268805 13.20218211 11.90268805 11.25 11.125 C7.91288084 9.45644042 5.35197658 6.88509128 3 4 C3 3.34 3 2.68 3 2 C2.01 1.67 1.02 1.34 0 1 C0 0.67 0 0.34 0 0 Z " fill="#1965BC" transform="translate(70,35)"/>
<path d="M0 0 C5.28 0 10.56 0 16 0 C15.67 1.65 15.34 3.3 15 5 C14.01 5.66 13.02 6.32 12 7 C12.33 5.68 12.66 4.36 13 3 C8.71 3 4.42 3 0 3 C0 2.01 0 1.02 0 0 Z " fill="#2369C0" transform="translate(594,163)"/>
<path d="M0 0 C2.58324013 1.29162007 2.69721131 2.27331625 3.7265625 4.9296875 C4.190625 6.12271484 4.190625 6.12271484 4.6640625 7.33984375 C4.98117187 8.17644531 5.29828125 9.01304687 5.625 9.875 C5.94984375 10.70386719 6.2746875 11.53273437 6.609375 12.38671875 C9 18.60435268 9 18.60435268 9 22 C8.34 22 7.68 22 7 22 C6.74605469 21.29875 6.49210938 20.5975 6.23046875 19.875 C5.88628906 18.92625 5.54210937 17.9775 5.1875 17 C4.82527344 15.9996875 4.46304688 14.999375 4.08984375 13.96875 C3.17134751 11.46675308 2.21817292 8.98296978 1.25 6.5 C0 3 0 3 0 0 Z " fill="#1967C0" transform="translate(813,133)"/>
<path d="M0 0 C0.99 0.33 1.98 0.66 3 1 C3.33 3.64 3.66 6.28 4 9 C-0.29 9 -4.58 9 -9 9 C-9 8.34 -9 7.68 -9 7 C-5.37 7 -1.74 7 2 7 C1.34 4.69 0.68 2.38 0 0 Z " fill="#1161BE" transform="translate(670,124)"/>
<path d="M0 0 C0.99 0 1.98 0 3 0 C1.82744291 3.33727786 0.81131596 5.77437487 -2 8 C-2.66 8 -3.32 8 -4 8 C-4.66 9.98 -5.32 11.96 -6 14 C-6.66 14 -7.32 14 -8 14 C-6.63923558 8.55694232 -3.96068133 3.9707594 0 0 Z " fill="#1467BD" transform="translate(126,26)"/>
<path d="M0 0 C0.66 0.66 1.32 1.32 2 2 C4.58064129 2.14497985 7.04943884 2.18677545 9.625 2.125 C10.33140625 2.11597656 11.0378125 2.10695312 11.765625 2.09765625 C13.51056098 2.07407603 15.25532295 2.03820461 17 2 C17.33 2.99 17.66 3.98 18 5 C12.39 5 6.78 5 1 5 C0.67 3.35 0.34 1.7 0 0 Z " fill="#1360BE" transform="translate(815,178)"/>
<path d="M0 0 C0.66 0.33 1.32 0.66 2 1 C-5 8 -5 8 -6.66796875 9.60546875 C-8.11367466 10.98201257 -8.11367466 10.98201257 -9 13 C-9.66 13 -10.32 13 -11 13 C-9.52848475 8.14399966 -6.64952252 4.45450986 -3 1 C-2.01 0.67 -1.02 0.34 0 0 Z " fill="#1467BF" transform="translate(318,99)"/>
<path d="M0 0 C0.66 0.33 1.32 0.66 2 1 C-5.30934715 4.50848663 -11.99054432 4.30372936 -20 4 C-17.54728161 1.69793999 -16.27682669 1.02280969 -12.87109375 0.7421875 C-11.73800781 0.78601563 -10.60492187 0.82984375 -9.4375 0.875 C-4.63285107 1.06499152 -4.63285107 1.06499152 0 0 Z " fill="#5594D0" transform="translate(594,180)"/>
<path d="M0 0 C0.33 0.99 0.66 1.98 1 3 C0.44570312 3.47050781 -0.10859375 3.94101563 -0.6796875 4.42578125 C-1.40414062 5.04839844 -2.12859375 5.67101562 -2.875 6.3125 C-3.59429687 6.92738281 -4.31359375 7.54226562 -5.0546875 8.17578125 C-7.19179331 10.0412324 -7.19179331 10.0412324 -9 13 C-9.66 12.67 -10.32 12.34 -11 12 C-9.92338719 10.5574598 -8.83839897 9.12116839 -7.75 7.6875 C-6.84507813 6.48673828 -6.84507813 6.48673828 -5.921875 5.26171875 C-4.09729864 3.11450388 -2.31702954 1.58398701 0 0 Z " fill="#1F6BBE" transform="translate(120,115)"/>
<path d="M0 0 C0.66 0.7425 1.32 1.485 2 2.25 C5.17520574 5.46180754 8.91316847 7.18475721 13 9 C12.67 9.66 12.34 10.32 12 11 C7.1725201 9.58707905 3.2837641 7.57025846 -1 5 C-0.67 3.35 -0.34 1.7 0 0 Z " fill="#3375C0" transform="translate(179,96)"/>
<path d="M0 0 C1.79244141 0.01740234 1.79244141 0.01740234 3.62109375 0.03515625 C5.41740234 0.04869141 5.41740234 0.04869141 7.25 0.0625 C8.17683594 0.07410156 9.10367188 0.08570312 10.05859375 0.09765625 C10.05859375 0.42765625 10.05859375 0.75765625 10.05859375 1.09765625 C9.25035156 1.10023438 8.44210937 1.1028125 7.609375 1.10546875 C1.60780761 1.13698138 1.60780761 1.13698138 -3.78125 3.359375 C-5.94403538 5.96917985 -7.62161684 8.97815402 -8.94140625 12.09765625 C-9.60140625 12.09765625 -10.26140625 12.09765625 -10.94140625 12.09765625 C-9.66140523 7.09401592 -7.76812549 4.53189147 -3.94140625 1.09765625 C-2.94140625 0.09765625 -2.94140625 0.09765625 0 0 Z " fill="#C9DFEE" transform="translate(505.94140625,127.90234375)"/>
<path d="M0 0 C0.66 0 1.32 0 2 0 C2.33 1.98 2.66 3.96 3 6 C-1.62 6 -6.24 6 -11 6 C-11 5.34 -11 4.68 -11 4 C-5.555 3.505 -5.555 3.505 0 3 C0 2.01 0 1.02 0 0 Z " fill="#1766BF" transform="translate(736,127)"/>
<path d="M0 0 C0.33 0.99 0.66 1.98 1 3 C-3.62 7.62 -8.24 12.24 -13 17 C-13.66 16.67 -14.32 16.34 -15 16 C-14.25234375 15.26394531 -13.5046875 14.52789062 -12.734375 13.76953125 C-11.73944821 12.78399056 -10.74466412 11.79830579 -9.75 10.8125 C-9.25886719 10.32974609 -8.76773438 9.84699219 -8.26171875 9.34960938 C-5.27813023 6.38591145 -2.56677663 3.342921 0 0 Z " fill="#DAE7EF" transform="translate(247,191)"/>
<path d="M0 0 C4.95 0 9.9 0 15 0 C14.67 0.99 14.34 1.98 14 3 C10.04 2.67 6.08 2.34 2 2 C1.67 2.99 1.34 3.98 1 5 C0.67 3.35 0.34 1.7 0 0 Z " fill="#2F6FC3" transform="translate(685,162)"/>
<path d="M0 0 C1.6990169 2.0683684 2.89762624 3.55211478 3.5 6.1875 C3.665 6.785625 3.83 7.38375 4 8 C4.99 8.33 5.98 8.66 7 9 C8.35827971 10.64639965 9.69254251 12.31295807 11 14 C11.66 14.33 12.32 14.66 13 15 C13 15.66 13 16.32 13 17 C9.66863403 15.57646476 7.72335243 13.8664687 5.375 11.125 C4.78460937 10.44695312 4.19421875 9.76890625 3.5859375 9.0703125 C1.19941318 5.95489898 0 3.9666371 0 0 Z " fill="#1360BD" transform="translate(551,162)"/>
<path d="M0 0 C0.66 0.66 1.32 1.32 2 2 C1.48050781 2.50789063 0.96101562 3.01578125 0.42578125 3.5390625 C-3.6224371 7.53490094 -7.44650891 11.55813614 -11 16 C-11.66 15.67 -12.32 15.34 -13 15 C-12.22914063 14.16855469 -11.45828125 13.33710937 -10.6640625 12.48046875 C-9.6509335 11.38291233 -8.63791863 10.28525056 -7.625 9.1875 C-7.11710938 8.64029297 -6.60921875 8.09308594 -6.0859375 7.52929688 C-3.84783697 5.09977985 -1.83620888 2.75431332 0 0 Z " fill="#DBE8EF" transform="translate(235,68)"/>
<path d="M0 0 C0.66 0 1.32 0 2 0 C2.8394882 2.10171867 3.67139656 4.20646625 4.5 6.3125 C5.19609375 8.07013672 5.19609375 8.07013672 5.90625 9.86328125 C7 13 7 13 7 16 C6.34 16 5.68 16 5 16 C4.1605118 13.89828133 3.32860344 11.79353375 2.5 9.6875 C2.0359375 8.51574219 1.571875 7.34398437 1.09375 6.13671875 C0 3 0 3 0 0 Z " fill="#1A66C0" transform="translate(822,157)"/>
<path d="M0 0 C4.29 0 8.58 0 13 0 C13.33 2.97 13.66 5.94 14 9 C13.34 9 12.68 9 12 9 C11.67 6.36 11.34 3.72 11 1 C7.37 1 3.74 1 0 1 C0 0.67 0 0.34 0 0 Z " fill="#1163BD" transform="translate(479,114)"/>
<path d="M0 0 C0.66 0 1.32 0 2 0 C2.33 0.99 2.66 1.98 3 3 C1.71034824 4.37562854 0.37310707 5.70766393 -1 7 C-1.66 7 -2.32 7 -3 7 C-3 7.66 -3 8.32 -3 9 C-3.99 8.67 -4.98 8.34 -6 8 C-5.04956626 6.66102417 -4.08940853 5.32894573 -3.125 4 C-2.59132812 3.2575 -2.05765625 2.515 -1.5078125 1.75 C-1.01023438 1.1725 -0.51265625 0.595 0 0 Z " fill="#1D6CBF" transform="translate(234,162)"/>
<path d="M0 0 C5.29158974 1.40071493 7.77478044 4.85487245 11 9 C10.01 9 9.02 9 8 9 C7.6596875 8.071875 7.6596875 8.071875 7.3125 7.125 C5.61583557 4.3780195 3.94748289 4.13364727 1 3 C0.67 2.01 0.34 1.02 0 0 Z " fill="#1B68C0" transform="translate(371,95)"/>
<path d="M0 0 C2.77643441 2.35996925 4.31420364 5.12962594 6.03515625 8.28125 C6.94447862 9.90109552 7.96957564 11.45436346 9 13 C8.01 13 7.02 13 6 13 C4.39453125 10.91796875 4.39453125 10.91796875 2.8125 8.1875 C2.28269531 7.29417969 1.75289063 6.40085938 1.20703125 5.48046875 C0 3 0 3 0 0 Z " fill="#0F5EB9" transform="translate(105,174)"/>
<path d="M0 0 C0.66 0.33 1.32 0.66 2 1 C-0.25740623 3.33524782 -2.2805761 5.18705073 -5 7 C-6.32 6.67 -7.64 6.34 -9 6 C-6.03 4.02 -3.06 2.04 0 0 Z " fill="#367BC4" transform="translate(252,19)"/>
<path d="M0 0 C0.66 1.32 1.32 2.64 2 4 C6.29 4 10.58 4 15 4 C15 4.33 15 4.66 15 5 C9.72 5 4.44 5 -1 5 C-0.67 3.35 -0.34 1.7 0 0 Z " fill="#2570C2" transform="translate(746,178)"/>
<path d="M0 0 C0.66 0.33 1.32 0.66 2 1 C-0.37481514 4.2229634 -2.18188972 6.60002623 -6 8 C-6.66 8 -7.32 8 -8 8 C-8 7.34 -8 6.68 -8 6 C-6.25 4.4921875 -6.25 4.4921875 -4 2.875 C-3.2575 2.33617187 -2.515 1.79734375 -1.75 1.2421875 C-1.1725 0.83226562 -0.595 0.42234375 0 0 Z " fill="#CADEEC" transform="translate(178,197)"/>
<path d="M0 0 C4.12751449 0.60698743 7.3321148 2.03810791 11 4 C8.83032311 4.95465783 7.43671207 5.14401212 5.17578125 4.3984375 C3.4315257 3.64129615 1.71372869 2.82390802 0 2 C0 1.34 0 0.68 0 0 Z " fill="#2A73C4" transform="translate(695,178)"/>
<path d="M0 0 C3.81936528 1.55603771 6.26044438 3.95604931 9 7 C9 7.66 9 8.32 9 9 C7 9 7 9 4.875 7.125 C3 5 3 5 3 3 C2.01 3 1.02 3 0 3 C0 2.01 0 1.02 0 0 Z " fill="#1E6AC1" transform="translate(729,144)"/>
<path d="M0 0 C4 4.75 4 4.75 4 7 C5.32 7.33 6.64 7.66 8 8 C6.02 8.99 6.02 8.99 4 10 C0 3.375 0 3.375 0 0 Z " fill="#125FB9" transform="translate(92,102)"/>
<path d="M0 0 C3.94139078 1.66751148 6.7892812 4.22710649 10 7 C9.34 7.66 8.68 8.32 8 9 C8 8.34 8 7.68 8 7 C7.4225 6.773125 6.845 6.54625 6.25 6.3125 C3.4336339 4.66961977 1.91922886 2.60466773 0 0 Z " fill="#1964BC" transform="translate(77,179)"/>
<path d="M0 0 C2.9297008 2.82506863 5.50174717 5.78796065 8 9 C7.67 9.66 7.34 10.32 7 11 C5.82439821 9.73742767 4.65977135 8.46462916 3.5 7.1875 C2.8503125 6.47980469 2.200625 5.77210938 1.53125 5.04296875 C0 3 0 3 0 0 Z " fill="#0D5DBC" transform="translate(687,168)"/>
<path d="M0 0 C3.3 1.98 6.6 3.96 10 6 C6 7 6 7 2.75 5.25 C1.8425 4.5075 0.935 3.765 0 3 C0 2.01 0 1.02 0 0 Z " fill="#1A68C1" transform="translate(327,161)"/>
<path d="M0 0 C0.66 0.66 1.32 1.32 2 2 C0.74057614 3.19959375 -0.53295286 4.38439443 -1.8125 5.5625 C-2.87404297 6.55443359 -2.87404297 6.55443359 -3.95703125 7.56640625 C-4.63121094 8.03949219 -5.30539063 8.51257813 -6 9 C-6.99 8.67 -7.98 8.34 -9 8 C-8.51789063 7.67386719 -8.03578125 7.34773438 -7.5390625 7.01171875 C-6.90742188 6.57472656 -6.27578125 6.13773437 -5.625 5.6875 C-4.99851563 5.25824219 -4.37203125 4.82898438 -3.7265625 4.38671875 C-1.73621155 2.93079661 -1.73621155 2.93079661 0 0 Z " fill="#D0E1ED" transform="translate(177,73)"/>
<path d="M0 0 C5.53846154 0.61538462 5.53846154 0.61538462 7.875 2.5625 C8.431875 3.2740625 8.431875 3.2740625 9 4 C8.01 4.495 8.01 4.495 7 5 C4.5249829 3.88568235 2.32116581 2.41849022 0 1 C0 0.67 0 0.34 0 0 Z " fill="#397CC5" transform="translate(124,198)"/>
<path d="M0 0 C0.66 0 1.32 0 2 0 C2.66 2.97 3.32 5.94 4 9 C3.01 9.495 3.01 9.495 2 10 C0.68373308 6.38026598 0 3.90432869 0 0 Z " fill="#1767C0" transform="translate(387,114)"/>
<path d="M0 0 C-0.99 0 -1.98 0 -3 0 C-3 0.66 -3 1.32 -3 2 C-5.31 2.33 -7.62 2.66 -10 3 C-6.81859267 -0.48439851 -4.56758339 -1.41752588 0 0 Z " fill="#4685CB" transform="translate(642,114)"/>
<path d="M0 0 C0.33 0.99 0.66 1.98 1 3 C0.00390625 4.82421875 0.00390625 4.82421875 -1.4375 6.6875 C-1.91058594 7.31011719 -2.38367188 7.93273437 -2.87109375 8.57421875 C-3.24363281 9.04472656 -3.61617188 9.51523438 -4 10 C-4.33 9.34 -4.66 8.68 -5 8 C-4.00390625 6.0546875 -4.00390625 6.0546875 -2.5625 3.875 C-2.08941406 3.15054688 -1.61632812 2.42609375 -1.12890625 1.6796875 C-0.75636719 1.12539062 -0.38382812 0.57109375 0 0 Z " fill="#D9E9F1" transform="translate(324,114)"/>
<path d="M0 0 C0.66 0.33 1.32 0.66 2 1 C-0.625 5.875 -0.625 5.875 -4 7 C-2.92598892 4.08482708 -2.22189824 2.22189824 0 0 Z " fill="#226EC3" transform="translate(425,116)"/>
<path d="M0 0 C0.66 0 1.32 0 2 0 C2.33 2.64 2.66 5.28 3 8 C2.01 8.495 2.01 8.495 1 9 C0.67 6.03 0.34 3.06 0 0 Z " fill="#256FBF" transform="translate(274,73)"/>
<path d="M0 0 C3.7952131 1.49097658 5.61042731 3.75700849 8 7 C7.01 7 6.02 7 5 7 C3.61328125 5.46875 3.61328125 5.46875 2.3125 3.5 C1.87550781 2.8503125 1.43851562 2.200625 0.98828125 1.53125 C0.49908203 0.77328125 0.49908203 0.77328125 0 0 Z " fill="#1964BD" transform="translate(309,165)"/>
<path d="M0 0 C0.66 0.33 1.32 0.66 2 1 C0.25 4.875 0.25 4.875 -2 6 C-2.66 5.34 -3.32 4.68 -4 4 C-2.68 2.68 -1.36 1.36 0 0 Z " fill="#2875C5" transform="translate(630,117)"/>
<path d="M0 0 C3.91402949 1.26941497 5.79072873 2.51167694 8 6 C7.01 6.495 7.01 6.495 6 7 C6 6.34 6 5.68 6 5 C5.01 4.67 4.02 4.34 3 4 C3 3.34 3 2.68 3 2 C2.01 2 1.02 2 0 2 C0 1.34 0 0.68 0 0 Z " fill="#1161BD" transform="translate(451,116)"/>
<path d="M0 0 C4 1 4 1 5.75 3.5625 C6.1625 4.366875 6.575 5.17125 7 6 C6.01 6.495 6.01 6.495 5 7 C3.35 4.69 1.7 2.38 0 0 Z " fill="#1968C0" transform="translate(366,110)"/>
<path d="M0 0 C2.35953094 2.35953094 2.49141413 3.77895617 3 7 C1.35 6.67 -0.3 6.34 -2 6 C-1.34 4.02 -0.68 2.04 0 0 Z " fill="#CAE1EC" transform="translate(787,106)"/>
<path d="M0 0 C5.75 1.75 5.75 1.75 8 4 C5 5 5 5 2.875 4.25 C1 3 1 3 0 0 Z " fill="#266FBF" transform="translate(184,102)"/>
</svg>
